<svg xmlns="http://www.w3.org/2000/svg" viewBox="0 0 218.667 54.667"><path d="m61.07 18.346 3.412-1.08c-.524-1.905-1.393-3.32-2.612-4.245-1.215-.923-2.762-1.386-4.635-1.386-2.316 0-4.221.792-5.712 2.373-1.49 1.585-2.238 3.749-2.238 6.491 0 2.905.751 5.16 2.25 6.768 1.5 1.605 3.47 2.41 5.915 2.41 2.133 0 3.868-.63 5.2-1.894.796-.744 1.39-1.816 1.788-3.213l-3.49-.833c-.203.906-.634 1.621-1.292 2.145-.654.524-1.45.784-2.385.784-1.291 0-2.344-.464-3.148-1.393-.804-.926-1.207-2.43-1.207-4.51 0-2.206.395-3.778 1.19-4.712.793-.938 1.825-1.405 3.092-1.405.939 0 1.743.296 2.417.894.675.592 1.158 1.531 1.454 2.806zm6.439-6.414V29.38h12.934v-2.954h-9.412v-3.867h8.758v-2.937h-8.758v-4.749h9.745v-2.94zm16.278 0V29.38H95.75v-2.954h-8.437v-4.127h7.283v-2.953h-7.283v-7.414zm14.868 0V29.38h12.934v-2.954h-9.412v-3.867h8.758v-2.937h-8.758v-4.749h9.746v-2.94zm20.181 0v14.494h-5.175v2.954h13.865v-2.954h-5.163V11.932Zm9.153-.297 4.323 18.041h2.51l-4.367-18.04zm8.592.297V29.38h7.418c1.865 0 3.217-.158 4.062-.471.846-.313 1.524-.87 2.032-1.67.507-.805.759-1.719.759-2.75 0-1.309-.386-2.393-1.154-3.246-.767-.849-1.921-1.39-3.452-1.61.763-.446 1.393-.934 1.888-1.465.496-.533 1.162-1.475 2.004-2.832l2.132-3.404h-4.213l-2.546 3.799c-.907 1.356-1.524 2.21-1.857 2.562-.333.354-.687.594-1.061.728-.373.13-.962.195-1.775.195h-.711v-7.284zm3.526 10.07h2.605c1.689 0 2.746.07 3.168.212.418.142.747.39.987.74.236.348.358.783.358 1.307 0 .589-.159 1.06-.471 1.422-.313.361-.756.589-1.329.686-.284.037-1.142.057-2.571.057h-2.747zm20.361 7.378h3.514V18.334c0-1.442-.13-2.555-.382-3.33a4.705 4.705 0 0 0-1.857-2.447c-.897-.617-2.079-.922-3.546-.922-1.722 0-3.047.48-3.977 1.447-.926.962-1.397 2.376-1.402 4.241l3.319.381c.041-.999.188-1.706.439-2.12.382-.625.963-.938 1.738-.938.785 0 1.342.222 1.666.673.326.447.488 1.378.488 2.791v11.27" style="fill:white;fill-opacity:1;fill-rule:nonzero;stroke:none;stroke-width:.1" transform="matrix(1.33333 0 0 -1.33333 0 54.667)"/><path d="m14.018 40.775-3.434-10.048H.493c2.827 5.451 7.657 8.8 13.525 10.048Zm1.932.002 17.68.059c4.977-2.084 4.36-7.22 3.468-9.728l-.03-.026-14.569-.035L11.98.582C6.517 2.167 4.397 7.077 5.538 11.057Zm6.927-14.799h9.86c1.612-.227 1.781-1.344 1.764-2.098l-2.344-6.306c-.41-.75-1.45-1.752-2.907-1.92H19.064Zm-5.853-15.882 12.656.088C24.493 2.23 16.276.423 13.697.475l3.327 9.62" style="fill:white;fill-opacity:1;fill-rule:evenodd;stroke:none;stroke-width:.1" transform="matrix(1.33333 0 0 -1.33333 0 54.667)"/></svg>
