<svg xmlns="http://www.w3.org/2000/svg" viewBox="0 0 290.667 214.667">
  <path d="m1018.35 1238.72-44.858-131.22H841.727c36.91 71.2 99.988 114.93 176.623 131.22zm25.23.03 230.87.77c64.99-27.22 56.91-94.28 45.28-127.05l-.39-.34-190.25-.44-137.375-397.831c-71.32 20.707-99.004 84.817-84.106 136.797zm90.44-193.25h128.77c21.03-2.97 23.25-17.55 23.03-27.41l-30.62-82.34c-5.36-9.785-18.92-22.879-37.95-25.07h-133.02zm-76.42-207.406 165.26 1.144c-67.74-103.836-175.03-127.457-208.72-126.773l43.46 125.629" style="fill:white;fill-opacity:1;fill-rule:evenodd;stroke:none" transform="matrix(.13333 0 0 -.13333 0 214.667)"/>
  <path d="M559.789 447.645c-2.84-25.668-12.84-46.082-30.109-61.188-17.266-15.102-39.227-22.629-65.93-22.629-31.187 0-55.98 10.41-74.332 31.289-18.402 20.879-27.578 49.129-27.578 84.75 0 36.285 9.176 65.102 27.578 86.395 18.352 21.34 43.145 32.011 74.332 32.011 26.395 0 48.199-7.113 65.52-21.339 17.32-14.227 27.476-33.512 30.519-57.84h-46.394c-1.497 11.961-6.653 21.394-15.469 28.457-8.813 7.008-20.051 10.512-33.61 10.512-17.218 0-30.722-6.907-40.515-20.672-9.742-13.762-14.641-32.832-14.641-57.266 0-23.77 4.844-42.426 14.59-55.879 9.688-13.457 23.246-20.211 40.566-20.211 13.559 0 24.797 3.918 33.61 11.758 8.816 7.887 13.972 18.449 15.469 31.852zm35.309-77.629v222.07h163.308V552.805H641.492v-47.012h108.563V467.441H641.492v-58.148h122.172v-39.277zm206.3 0v222.07h158.051V552.805h-111.66v-50.41h97.43V464.039h-97.43v-94.023h-23.094zm188.926 0v222.07h163.306V552.805h-116.91v-47.012h108.56V467.441h-108.56v-58.148h122.17v-39.277zm254.246 0v182.789h-67.12v39.281h180.62V552.805h-67.11V370.016h-23.09zm213.36 227.949-70.47-234.137h-35.62l70.46 234.137zm13.55-227.949v222.07h111.91c21.19 0 38.2-5.672 51.14-17.012 12.94-11.34 19.44-26.285 19.44-44.898 0-21.344-7.22-37.012-21.6-46.856-3.82-2.629-8.15-4.847-12.99-6.707a54.514 54.514 0 0 0 7.42-3.605c12.68-7.524 19.28-20.258 19.74-38.039l1.09-36.395c.2-7.269.98-12.426 2.26-15.418 1.29-3.039 3.82-5.461 7.53-7.269v-5.871h-51.19c-1.23 2.316-2.27 7.269-3.19 14.843-.88 7.633-1.4 15.778-1.5 24.539l-.31 20.516c-.21 9.945-3.14 17.063-8.82 21.289-5.66 4.227-15.1 6.344-28.29 6.344h-46.24v-87.531h-23.1zm46.4 124.953h53.76c11.96 0 20.98 2.426 26.96 7.324 5.98 4.891 8.97 12.262 8.97 22.164 0 9.742-2.83 17.059-8.55 21.957-5.68 4.899-14.18 7.324-25.57 7.324h-55.57zm257.07 97.117h46.39V432.285c0-22.527-6.02-39.586-18.14-51.137-12.11-11.543-29.95-17.32-53.51-17.32-25.1 0-43.51 6.344-55.21 19.02-11.7 12.632-17.16 32.222-16.34 58.664v13.246h44.23v-13.246c-.41-13.453 1.6-23.453 5.98-29.899 4.38-6.496 11.34-9.742 20.93-9.742 9.17 0 15.72 2.371 19.69 7.113 3.97 4.743 5.98 12.477 5.98 23.301v159.801" style="fill:white;fill-opacity:1;fill-rule:nonzero;stroke:none" transform="matrix(.13333 0 0 -.13333 0 214.667)"/>
</svg>